<?xml version="1.0" standalone="no"?>
<!DOCTYPE svg PUBLIC "-//W3C//DTD SVG 20010904//EN"
 "http://www.w3.org/TR/2001/REC-SVG-20010904/DTD/svg10.dtd">
<svg version="1.0" xmlns="http://www.w3.org/2000/svg"
 width="512.000000pt" height="512.000000pt" viewBox="0 0 512.000000 512.000000"
 preserveAspectRatio="xMidYMid meet">
<metadata>
Created by potrace 1.14, written by Peter Selinger 2001-2017
</metadata>
<g transform="translate(0.000000,512.000000) scale(0.100000,-0.100000)"
fill="#000000" stroke="none">
<path d="M1530 5113 c-54 -17 -127 -63 -164 -104 -67 -74 -78 -122 -79 -355
l-2 -196 -85 -28 c-253 -83 -442 -275 -515 -525 l-20 -71 -180 1 c-99 0 -200
-3 -225 -8 -96 -17 -192 -92 -232 -181 -31 -69 -31 -189 0 -258 27 -60 93
-127 157 -159 47 -23 61 -24 258 -27 l207 -4 0 -159 c0 -120 -3 -159 -12 -160
-7 0 -94 -2 -193 -3 -230 -3 -270 -14 -351 -95 -67 -69 -89 -122 -88 -221 0
-73 4 -92 27 -138 36 -68 83 -114 154 -148 55 -28 61 -28 252 -30 108 -1 199
-3 204 -3 4 -1 7 -73 7 -161 l0 -160 -188 0 c-141 0 -202 -4 -240 -15 -73 -22
-147 -86 -186 -160 -27 -53 -31 -69 -31 -140 1 -59 6 -92 22 -126 42 -93 133
-167 229 -185 21 -4 122 -8 223 -8 l183 -1 28 -85 c83 -253 276 -442 526 -515
l71 -20 -1 -175 c-1 -96 2 -197 6 -224 14 -98 90 -197 182 -237 52 -23 163
-32 216 -17 76 20 155 85 192 159 35 70 36 81 37 297 l1 182 160 0 c121 0 160
-3 161 -12 0 -7 2 -98 3 -203 2 -182 3 -192 28 -245 41 -87 116 -155 193 -175
166 -43 318 28 387 182 20 43 22 67 24 238 1 105 3 196 3 203 1 9 40 12 161
12 l160 0 1 -172 c0 -219 3 -240 34 -304 70 -143 249 -209 400 -149 82 33 154
110 180 191 15 48 19 93 19 253 l1 194 30 9 c76 22 105 33 169 65 194 96 335
264 401 478 l22 70 184 1 c101 0 202 4 223 8 96 18 187 92 229 185 16 34 21
67 22 126 0 68 -4 89 -28 137 -31 64 -89 120 -157 152 -40 19 -66 21 -252 24
l-208 4 0 159 c0 87 3 159 8 160 4 0 95 2 202 3 187 2 197 3 250 28 127 60
192 167 186 306 -5 137 -104 257 -236 288 -19 4 -118 8 -220 9 l-185 1 -3 161
-2 162 207 3 c208 3 208 3 267 33 65 33 118 88 149 155 31 66 30 187 -2 257
-29 65 -100 132 -171 162 -51 22 -69 24 -259 25 l-204 1 -22 70 c-42 139 -118
260 -220 353 -97 89 -174 133 -310 177 l-70 23 -1 194 c-2 251 -17 306 -110
387 -62 55 -118 75 -209 76 -69 0 -88 -4 -139 -30 -65 -33 -118 -88 -150 -155
-19 -40 -21 -66 -24 -252 l-4 -208 -159 0 c-120 0 -159 3 -160 13 0 6 -2 98
-3 202 -2 180 -3 193 -27 245 -31 66 -90 127 -155 160 -41 20 -63 24 -134 24
-74 0 -92 -3 -140 -28 -68 -36 -115 -85 -148 -156 -25 -53 -26 -62 -27 -255
l-2 -200 -161 -3 -160 -2 -4 207 c-4 187 -6 213 -26 255 -27 61 -100 134 -160
160 -45 20 -165 33 -202 21z"/>
</g>
</svg>
